# xmcd CD database file
# Copyright (C) 1995-1998 Ti Kan
#
# Track frame offsets:
#	150
#	11780
#	19102
#	28947
#	37592
#	49792
#	60100
#	70615
#	80282
#	95692
#	106555
#	116165
#	125730
#	135477
#	146040
#	157025
#	169170
#	179975
#	191210
#	202177
#	217852
#
# Disc length: 3038 seconds
#
# Revision: 2
# Processed by: cddbd v1.4PL0 Copyright (c) Steve Scherf et al.
# Submitted via: CDex 1.30Release
#
DISCID=2b0bdc15
DTITLE=Varios - Los tiempos locos del rock and roll
DYEAR=1991
DGENRE=Blues
TTITLE0=La suegra
TTITLE1=Pitagoras
TTITLE2=No seas cruel
TTITLE3=Que tal marilu
TTITLE4=Que tiene la niña
TTITLE5=La plaga
TTITLE6=Buen rock esta noche
TTITLE7=En el baile
TTITLE8=Paso a desnivel
TTITLE9=Multipliicando
TTITLE10=Voy bien o me regreso
TTITLE11=Zapatos de ante azul
TTITLE12=El ritmo del twist
TTITLE13=Camina derechito
TTITLE14=Muñequita
TTITLE15=Jinetes
TTITLE16=La bomba
TTITLE17=Quien puso el bump
TTITLE18=El twist
TTITLE19=Pensaba en ti
TTITLE20=Florida Twinst
EXTD=YEAR: 1991 ID3G:   0
EXTT0=
EXTT1=
EXTT2=
EXTT3=
EXTT4=
EXTT5=
EXTT6=
EXTT7=
EXTT8=
EXTT9=
EXTT10=
EXTT11=
EXTT12=
EXTT13=
EXTT14=
EXTT15=
EXTT16=
EXTT17=
EXTT18=
EXTT19=
EXTT20=
PLAYORDER=
